<?xml version="1.0" standalone="no"?>
<!DOCTYPE svg PUBLIC "-//W3C//DTD SVG 20010904//EN"
 "http://www.w3.org/TR/2001/REC-SVG-20010904/DTD/svg10.dtd">
<svg version="1.0" xmlns="http://www.w3.org/2000/svg"
 width="1208.000000pt" height="1208.000000pt" viewBox="0 0 1208.000000 1208.000000"
 preserveAspectRatio="xMidYMid meet">
<metadata>
Created by potrace 1.14, written by Peter Selinger 2001-2017
</metadata>
<g transform="translate(0.000000,1208.000000) scale(0.100000,-0.100000)"
fill="#000000" stroke="none">
<path d="M39 10268 c-4 -485 0 -8421 6 -8437 5 -16 10 -19 19 -12 13 11 76 11
76 0 0 -14 -14 -18 -26 -8 -9 8 -18 7 -31 -1 -15 -9 -14 -10 7 -4 23 6 24 6
10 -12 -13 -17 -13 -18 0 -8 8 6 23 10 33 9 9 -2 15 1 11 6 -6 11 18 12 32 1
5 -4 1 1 -9 10 -17 16 -15 17 38 15 49 -2 54 -4 50 -22 -3 -11 -2 -14 1 -7 8
17 24 15 41 -5 13 -16 13 -16 4 4 -6 12 -16 23 -23 26 -7 3 13 4 45 3 54 -1
69 -7 48 -21 -5 -3 -12 -1 -16 4 -3 5 -14 9 -25 8 -10 -1 -17 -5 -14 -9 3 -4
12 -4 22 -1 15 6 16 5 2 -13 -13 -17 -13 -18 0 -8 8 6 23 10 33 9 9 -2 15 1
11 6 -6 11 18 12 32 2 5 -5 1 0 -9 9 -17 16 -15 17 38 15 49 -2 54 -4 50 -22
-3 -11 -2 -14 1 -7 7 15 34 16 34 0 0 -6 3 -8 7 -4 5 4 0 14 -11 21 -16 12
-11 14 38 12 53 -2 68 -9 47 -22 -5 -3 -12 -1 -16 4 -3 5 -14 9 -25 8 -10 -1
-17 -5 -14 -9 3 -4 12 -4 22 -1 15 6 16 5 2 -13 -13 -17 -13 -18 0 -8 8 6 23
10 33 9 9 -2 15 1 11 6 -6 11 18 12 32 2 5 -5 1 0 -9 9 -17 16 -15 17 38 15
49 -2 54 -4 50 -22 -3 -11 -2 -14 1 -7 8 17 24 15 41 -5 13 -16 13 -16 4 4 -6
12 -16 23 -23 26 -7 3 13 4 45 3 54 -1 69 -7 48 -21 -5 -3 -12 -1 -16 4 -3 5
-14 9 -25 8 -10 -1 -17 -5 -14 -9 3 -4 12 -4 22 -1 15 6 16 5 2 -13 -13 -17
-13 -18 0 -8 8 6 23 10 33 9 9 -2 15 1 11 6 -6 11 18 12 32 1 5 -4 1 1 -9 10
-17 16 -15 17 38 15 49 -2 54 -4 50 -22 -3 -11 -2 -14 1 -7 8 17 24 15 41 -6
13 -15 13 -15 4 5 -6 12 -16 23 -23 26 -7 3 13 4 45 3 54 -1 69 -7 48 -21 -5
-3 -12 -1 -16 4 -3 5 -14 9 -25 8 -10 -1 -17 -5 -14 -9 3 -4 12 -4 22 -1 15 6
16 5 2 -13 -13 -17 -13 -18 0 -8 8 6 23 10 33 9 9 -2 15 1 11 6 -6 11 18 12
32 1 5 -4 1 1 -9 10 -17 16 -15 17 38 15 49 -2 54 -4 50 -22 -3 -11 -2 -14 1
-7 7 15 34 16 34 0 0 -6 3 -8 7 -4 5 4 0 14 -11 21 -16 12 -11 14 38 12 53 -2
68 -9 47 -22 -5 -3 -12 -1 -16 4 -3 5 -14 9 -25 8 -10 -1 -17 -5 -14 -9 3 -4
12 -4 22 -1 15 6 16 5 2 -13 -13 -17 -13 -18 0 -8 8 6 23 10 33 9 9 -2 15 1
11 6 -6 11 18 12 32 2 5 -5 1 0 -9 9 -17 16 -15 17 38 15 49 -2 54 -4 50 -22
-3 -11 -2 -14 1 -7 8 17 24 15 41 -5 13 -16 13 -16 4 4 -6 12 -16 23 -23 26
-7 3 13 4 45 3 54 -1 69 -7 48 -21 -5 -3 -12 -1 -16 4 -3 5 -14 9 -25 8 -10
-1 -17 -5 -14 -9 3 -4 12 -4 22 -1 15 6 16 5 2 -13 -13 -17 -13 -18 0 -8 8 6
23 10 33 9 9 -2 15 1 11 6 -6 11 18 12 32 2 5 -5 1 0 -9 9 -17 16 -15 17 38
15 49 -2 54 -4 50 -22 -3 -11 -2 -14 1 -7 8 17 24 15 41 -6 13 -15 13 -15 4 5
-6 12 -16 23 -23 26 -7 3 13 4 45 3 54 -1 69 -7 48 -21 -5 -3 -12 -1 -16 4 -3
5 -14 9 -25 8 -10 -1 -17 -5 -14 -9 3 -4 12 -4 22 -1 15 6 16 5 2 -13 -13 -17
-13 -18 0 -8 8 6 23 10 33 9 9 -2 15 1 11 6 -6 11 18 12 32 2 5 -5 1 0 -9 9
-17 16 -15 17 38 15 49 -2 54 -4 50 -22 -3 -11 -2 -14 1 -7 8 17 24 15 41 -5
13 -16 13 -16 4 4 -6 12 -16 23 -23 26 -7 3 13 4 45 3 54 -1 69 -7 48 -21 -5
-3 -12 -1 -16 4 -3 5 -14 9 -25 8 -10 -1 -17 -5 -14 -9 3 -4 12 -4 22 -1 15 6
16 5 2 -13 -13 -17 -13 -18 0 -8 8 6 23 10 33 9 9 -2 15 1 11 6 -6 11 18 12
32 2 5 -5 1 0 -9 9 -17 16 -15 17 38 15 49 -2 54 -4 50 -22 -3 -11 -2 -14 1
-7 7 15 34 16 34 0 0 -6 3 -8 7 -4 5 4 0 14 -11 21 -16 12 -11 14 38 12 53 -2
68 -9 47 -22 -5 -3 -12 -1 -16 4 -3 5 -14 9 -25 8 -10 -1 -17 -5 -14 -9 3 -4
12 -4 22 -1 15 6 16 5 2 -13 -13 -17 -13 -18 0 -8 8 6 23 10 33 9 9 -2 15 1
11 6 -6 11 18 12 32 2 5 -5 1 0 -9 9 -17 16 -15 17 38 15 49 -2 54 -4 50 -22
-3 -11 -2 -14 1 -7 8 17 24 15 41 -5 13 -16 13 -16 4 4 -6 12 -16 23 -23 26
-7 3 13 4 45 3 54 -1 69 -7 48 -21 -5 -3 -12 -1 -16 4 -3 5 -14 9 -25 8 -10
-1 -17 -5 -14 -9 3 -4 12 -4 22 -1 15 6 16 5 2 -13 -13 -17 -13 -18 0 -8 8 6
23 10 33 9 9 -2 15 1 11 6 -6 11 18 12 32 2 5 -5 1 0 -9 9 -17 16 -15 17 38
15 49 -2 54 -4 50 -22 -3 -11 -2 -14 1 -7 8 17 24 15 41 -5 13 -16 13 -16 4 4
-6 12 -16 23 -23 26 -7 3 13 4 45 3 54 -1 69 -7 48 -21 -5 -3 -12 -1 -16 4 -3
5 -14 9 -25 8 -10 -1 -17 -5 -14 -9 3 -4 12 -4 22 -1 15 6 16 5 2 -13 -13 -17
-13 -18 0 -8 8 6 23 10 33 9 9 -2 15 1 11 6 -6 11 18 12 32 2 5 -5 1 0 -9 9
-17 16 -15 17 38 15 49 -2 54 -4 50 -22 -3 -11 -2 -14 1 -7 8 17 24 15 41 -5
13 -16 13 -16 4 4 -6 12 -16 23 -23 26 -7 3 13 4 45 3 54 -1 69 -7 48 -21 -5
-3 -12 -1 -16 4 -3 5 -14 9 -25 8 -15 -1 -17 -4 -7 -17 19 -25 20 -26 14 -7
-6 17 3 23 17 10 10 -11 37 -12 30 -2 -6 11 18 12 32 2 5 -5 1 0 -9 9 -17 16
-15 17 38 15 49 -2 54 -4 50 -22 -3 -11 -2 -14 1 -7 7 15 34 16 34 0 0 -6 3
-8 7 -4 5 4 0 14 -11 21 -16 12 -11 14 38 12 53 -2 68 -9 47 -22 -5 -3 -12 -1
-16 4 -3 5 -14 9 -25 8 -10 -1 -17 -5 -14 -9 3 -4 12 -4 22 -1 15 6 16 5 2
-13 -13 -17 -13 -18 0 -8 8 6 23 10 33 9 9 -2 15 1 11 6 -6 11 18 12 32 2 5
-5 1 0 -9 9 -17 16 -15 17 38 15 49 -2 54 -4 50 -22 -3 -11 -2 -14 1 -7 7 15
34 16 34 0 0 -6 3 -8 7 -4 5 4 0 14 -11 21 -16 12 -11 14 38 12 53 -2 68 -9
47 -22 -5 -3 -12 -1 -16 4 -3 5 -14 9 -25 8 -10 -1 -17 -5 -14 -9 3 -4 12 -4
22 -1 15 6 16 5 2 -13 -13 -17 -13 -18 0 -8 8 6 23 10 33 9 9 -2 15 1 11 6 -6
11 18 12 32 2 5 -5 1 0 -9 9 -17 16 -15 17 38 15 49 -2 54 -4 50 -22 -3 -11
-2 -14 1 -7 7 15 34 16 34 0 0 -6 3 -8 7 -4 5 4 0 14 -11 21 -16 12 -11 14 38
12 53 -2 68 -9 47 -22 -5 -3 -12 -1 -16 4 -3 5 -14 9 -25 8 -10 -1 -17 -5 -14
-9 3 -4 12 -4 22 -1 15 6 16 5 2 -13 -13 -17 -13 -18 0 -8 8 6 23 10 33 9 9
-2 15 1 11 6 -6 11 18 12 32 2 5 -5 1 0 -9 9 -17 16 -15 17 38 15 49 -2 54 -4
50 -22 -3 -11 -2 -14 1 -7 8 17 24 15 41 -5 13 -16 13 -16 4 4 -6 12 -16 23
-23 26 -7 3 13 4 45 3 54 -1 69 -7 48 -21 -5 -3 -12 -1 -16 4 -3 5 -14 9 -25
8 -10 -1 -17 -5 -14 -9 3 -4 12 -4 22 -1 15 6 16 5 2 -13 -13 -17 -13 -18 0
-8 8 6 23 10 33 9 9 -2 15 1 11 6 -3 5 0 9 6 9 6 0 8 5 5 10 -3 6 -2 10 3 10
5 0 15 -11 22 -25 7 -14 15 -23 17 -21 3 2 0 14 -7 25 -13 26 -4 27 18 3 10
-10 13 -12 8 -5 -5 8 -5 17 -1 21 4 4 10 1 12 -6 4 -10 8 -10 20 0 14 11 15
10 10 -12 -4 -14 -4 -19 -1 -12 7 15 34 16 34 0 0 -6 3 -8 7 -4 5 4 0 14 -11
21 -16 12 -11 14 38 12 53 -2 68 -9 47 -22 -5 -3 -12 -1 -16 4 -3 5 -14 9 -25
8 -10 -1 -17 -5 -14 -9 3 -4 12 -4 22 -1 15 6 16 5 2 -13 -13 -17 -13 -18 0
-8 8 6 23 10 33 9 9 -2 15 1 11 6 -6 11 18 12 32 2 5 -5 1 0 -9 9 -17 16 -15
17 38 15 49 -2 54 -4 50 -22 -3 -11 -2 -14 1 -7 8 17 24 15 41 -5 13 -16 13
-16 4 4 -6 12 -16 23 -23 26 -7 3 13 4 45 3 54 -1 69 -7 48 -21 -5 -3 -12 -1
-16 4 -3 5 -14 9 -25 8 -10 -1 -17 -5 -14 -9 3 -4 12 -4 22 -1 15 6 16 5 2
-13 -13 -17 -13 -18 0 -8 8 6 23 10 33 9 9 -2 15 1 11 6 -6 11 18 12 32 1 5
-4 1 1 -9 10 -17 16 -15 17 38 15 49 -2 54 -4 50 -22 -3 -11 -2 -14 1 -7 7 15
34 16 34 0 0 -6 3 -8 7 -4 5 4 0 14 -11 21 -16 12 -11 14 38 12 53 -2 68 -9
47 -22 -5 -3 -12 -1 -16 4 -3 5 -14 9 -25 8 -15 -1 -17 -4 -7 -17 19 -25 20
-26 14 -8 -6 18 3 24 17 11 10 -11 37 -12 30 -2 -6 11 18 12 32 2 5 -5 1 0 -9
9 -17 16 -15 17 38 15 49 -2 54 -4 50 -22 -3 -11 -2 -14 1 -7 7 15 34 16 34 0
0 -6 3 -8 7 -4 5 4 0 14 -11 21 -16 12 -11 14 38 12 53 -2 68 -9 47 -22 -5 -3
-12 -1 -16 4 -3 5 -14 9 -25 8 -10 -1 -17 -5 -14 -9 3 -4 12 -4 22 -1 15 6 16
5 2 -13 -13 -17 -13 -18 0 -8 8 6 23 10 33 9 9 -2 15 1 11 6 -6 11 18 12 32 2
5 -5 1 0 -9 9 -17 16 -15 17 38 15 49 -2 54 -4 50 -22 -3 -11 -2 -14 1 -7 7
15 34 16 34 0 0 -6 3 -8 7 -4 5 4 0 14 -11 21 -16 12 -11 14 38 12 53 -2 68
-9 47 -22 -5 -3 -12 -1 -16 4 -3 5 -14 9 -25 8 -10 -1 -17 -5 -14 -9 3 -4 12
-4 22 -1 15 6 16 5 2 -13 -13 -17 -13 -18 0 -8 8 6 23 10 33 9 9 -2 15 1 11 6
-6 11 18 12 32 2 5 -5 1 0 -9 9 -17 16 -15 17 38 15 49 -2 54 -4 50 -22 -3
-11 -2 -14 1 -7 8 17 24 15 41 -5 13 -16 13 -16 4 4 -6 12 -16 23 -23 26 -7 3
13 4 45 3 54 -1 69 -7 48 -21 -5 -3 -12 -1 -16 4 -3 5 -14 9 -25 8 -10 -1 -17
-5 -14 -9 3 -4 12 -4 22 -1 15 6 16 5 2 -13 -13 -17 -13 -18 0 -8 8 6 23 10
33 9 9 -2 15 1 11 6 -6 11 18 12 32 2 5 -5 1 0 -9 9 -17 16 -15 17 38 15 49
-2 54 -4 50 -22 -3 -11 -2 -14 1 -7 8 17 24 15 41 -5 13 -16 13 -16 4 4 -6 12
-16 23 -23 26 -7 3 13 4 45 3 54 -1 69 -7 48 -21 -5 -3 -12 -1 -16 4 -3 5 -14
9 -25 8 -10 -1 -17 -5 -14 -9 3 -4 12 -4 22 -1 15 6 16 5 2 -13 -13 -17 -13
-18 0 -8 8 6 23 10 33 9 9 -2 15 1 11 6 -6 11 18 12 32 2 5 -5 1 0 -9 9 -17
16 -15 17 38 15 49 -2 54 -4 50 -22 -3 -11 -2 -14 1 -7 8 17 24 15 41 -5 13
-16 13 -16 4 4 -6 12 -16 23 -23 26 -7 3 13 4 45 3 54 -1 69 -7 48 -21 -5 -3
-12 -1 -16 4 -3 5 -14 9 -25 8 -10 -1 -17 -5 -14 -9 3 -4 12 -4 22 -1 15 6 16
5 2 -13 -13 -17 -13 -18 0 -8 8 6 23 10 33 9 9 -2 15 1 11 6 -3 5 0 9 6 9 6 0
8 5 5 10 -3 6 -2 10 3 10 5 0 15 -11 22 -25 7 -14 15 -23 17 -21 3 2 0 14 -7
25 -13 26 -4 27 18 3 10 -10 13 -12 8 -5 -5 8 -5 17 -1 21 4 4 10 1 12 -6 4
-10 8 -10 20 0 14 11 15 10 10 -12 -4 -14 -4 -19 -1 -12 7 15 34 16 34 0 0 -6
3 -8 7 -4 5 4 0 14 -11 21 -16 12 -11 14 38 12 53 -2 68 -9 47 -22 -5 -3 -12
-1 -16 4 -3 5 -14 9 -25 8 -10 -1 -17 -5 -14 -9 3 -4 12 -4 22 -1 15 6 16 5 2
-13 -13 -17 -13 -18 0 -8 8 6 23 10 33 9 9 -2 15 1 11 6 -6 11 18 12 32 2 5
-5 1 0 -9 9 -17 16 -15 17 38 15 49 -2 54 -4 50 -22 -3 -11 -2 -14 1 -7 8 17
24 15 41 -5 13 -16 13 -16 4 4 -6 12 -16 23 -23 26 -7 3 13 4 45 3 54 -1 69
-7 48 -21 -5 -3 -12 -1 -16 4 -3 5 -14 9 -25 8 -10 -1 -17 -5 -14 -9 3 -4 12
-4 22 -1 15 6 16 5 2 -12 -13 -17 -13 -18 0 -10 8 6 17 10 20 11 3 0 13 4 23
8 9 5 23 4 30 0 7 -5 5 -1 -5 8 -18 16 -16 17 37 15 49 -2 54 -4 50 -22 -3
-11 -2 -14 1 -8 8 18 24 16 41 -4 13 -16 13 -16 4 4 -6 12 -16 23 -23 26 -7 3
13 4 45 3 54 -1 69 -7 48 -21 -5 -3 -12 -1 -16 4 -3 5 -14 9 -25 8 -10 -1 -17
-5 -14 -9 3 -4 12 -4 22 -1 15 6 16 5 2 -13 -13 -17 -13 -18 0 -8 8 6 23 10
33 9 9 -2 15 1 11 6 -6 11 18 12 32 2 5 -5 1 0 -9 9 -17 16 -15 17 38 15 49
-2 54 -4 50 -22 -3 -11 -2 -14 1 -7 8 17 24 15 41 -5 13 -16 13 -16 4 4 -6 12
-16 23 -23 26 -7 3 13 4 45 3 54 -1 69 -7 48 -21 -5 -3 -12 -1 -16 4 -3 5 -14
9 -25 8 -10 -1 -17 -5 -14 -9 3 -4 12 -4 22 -1 15 6 16 5 2 -13 -13 -17 -13
-18 0 -8 8 6 23 10 33 9 9 -2 15 1 11 6 -3 5 0 9 6 9 6 0 8 5 5 10 -3 6 -2 10
3 10 5 0 15 -11 22 -25 7 -14 15 -23 17 -21 3 2 0 14 -7 25 -9 17 -8 21 5 21
9 0 14 -4 11 -9 -3 -5 2 -15 12 -22 15 -13 16 -12 4 3 -9 11 -10 18 -2 23 5 3
10 1 10 -6 0 -8 5 -7 16 2 15 12 16 11 11 -11 -4 -14 -4 -19 -1 -12 7 15 34
16 34 0 0 -6 3 -8 7 -4 5 4 0 14 -11 21 -16 12 -11 14 38 12 53 -2 68 -9 47
-22 -5 -3 -12 -1 -16 4 -3 5 -14 9 -25 8 -10 -1 -17 -5 -14 -9 3 -4 12 -4 22
-1 15 6 16 5 2 -13 -13 -17 -13 -18 0 -8 8 6 23 10 33 9 9 -2 15 1 11 6 -6 11
18 12 32 2 5 -5 1 0 -9 9 -17 16 -15 17 38 15 49 -2 54 -4 50 -22 -3 -11 -2
-14 1 -8 8 18 24 16 41 -4 13 -16 13 -16 4 4 -6 12 -16 23 -23 26 -7 3 13 4
45 3 54 -1 69 -7 48 -21 -5 -3 -12 -1 -16 4 -3 5 -14 9 -25 8 -10 -1 -17 -5
-14 -9 3 -4 12 -4 22 -1 15 6 16 5 2 -13 -13 -17 -13 -18 0 -8 8 6 23 10 33 9
9 -2 15 1 11 6 -6 11 18 12 32 2 5 -5 1 0 -9 9 -17 16 -15 17 38 15 49 -2 54
-4 50 -22 -3 -11 -2 -14 1 -7 8 17 24 15 41 -6 13 -15 13 -15 4 5 -6 12 -16
23 -23 26 -7 3 13 4 45 3 54 -1 69 -7 48 -21 -5 -3 -12 -1 -16 4 -3 5 -14 9
-25 8 -10 -1 -17 -5 -14 -9 3 -4 12 -4 22 -1 15 6 16 5 2 -13 -13 -17 -13 -18
0 -8 8 6 23 10 33 9 9 -2 15 1 11 6 -6 11 18 12 32 2 5 -5 1 0 -9 9 -17 16
-15 17 38 15 49 -2 54 -4 50 -22 -3 -11 -2 -14 1 -8 8 18 24 16 41 -4 13 -16
13 -16 4 4 -6 12 -16 23 -23 26 -7 3 13 4 45 3 54 -1 69 -7 48 -21 -5 -3 -12
-1 -16 4 -3 5 -14 9 -25 8 -10 -1 -17 -5 -14 -9 3 -4 12 -4 22 -1 15 6 16 5 2
-13 -13 -17 -13 -18 0 -8 8 6 23 10 33 9 9 -2 15 1 11 6 -6 11 18 12 32 2 5
-5 1 0 -9 9 -17 16 -15 17 38 15 49 -2 54 -4 50 -22 -3 -11 -2 -14 1 -7 8 17
24 15 41 -5 13 -16 13 -16 4 4 -6 12 -16 23 -23 26 -7 3 13 4 45 3 54 -1 69
-7 48 -21 -5 -3 -12 -1 -16 4 -3 5 -14 9 -25 8 -10 -1 -17 -5 -14 -9 3 -4 12
-4 22 -1 15 6 16 5 2 -13 -13 -17 -13 -18 0 -8 8 6 23 10 33 9 9 -2 15 1 11 6
-6 11 18 12 32 2 5 -5 1 0 -9 9 -17 16 -15 17 38 15 49 -2 54 -4 50 -22 -3
-11 -2 -14 1 -7 7 15 34 16 34 0 0 -6 3 -8 7 -4 5 4 0 14 -11 21 -16 12 -11
14 38 12 53 -2 68 -9 47 -22 -5 -3 -12 -1 -16 4 -3 5 -14 9 -25 8 -10 -1 -17
-5 -14 -9 3 -4 12 -4 22 -1 15 6 16 5 2 -13 -13 -17 -13 -18 0 -8 8 6 23 10
33 9 9 -2 15 1 11 6 -6 11 18 12 32 2 5 -5 1 0 -9 9 -17 16 -15 17 38 15 49
-2 54 -4 50 -22 -3 -11 -2 -14 1 -7 8 17 24 15 41 -5 13 -16 13 -16 4 4 -6 12
-16 23 -23 26 -7 3 13 4 45 3 54 -1 69 -7 48 -21 -5 -3 -12 -1 -16 4 -3 5 -14
9 -25 8 -10 -1 -17 -5 -14 -9 3 -4 12 -4 22 -1 15 6 16 5 2 -13 -13 -17 -13
-18 0 -8 8 6 23 10 33 9 9 -2 15 1 11 6 -6 11 18 12 32 2 5 -5 1 0 -9 9 -17
16 -15 17 38 15 49 -2 54 -4 50 -22 -3 -11 -2 -14 1 -7 8 17 24 15 41 -5 13
-16 13 -16 4 4 -6 12 -16 23 -23 26 -7 3 13 4 45 3 54 -1 69 -7 48 -21 -5 -3
-12 -1 -16 4 -3 5 -14 9 -25 8 -10 -1 -17 -5 -14 -9 3 -4 12 -4 22 -1 15 6 16
5 2 -13 -13 -17 -13 -18 0 -8 8 6 23 10 33 9 9 -2 15 1 11 6 -6 11 18 12 32 2
5 -5 1 0 -9 9 -17 16 -15 17 38 15 49 -2 54 -4 50 -22 -3 -11 -2 -14 1 -7 7
15 34 16 34 0 0 -6 3 -8 7 -4 5 4 0 14 -11 21 -16 12 -11 14 38 12 53 -2 68
-9 47 -22 -5 -3 -12 -1 -16 4 -3 5 -14 9 -25 8 -10 -1 -17 -5 -14 -9 3 -4 12
-4 22 -1 15 6 16 5 2 -13 -13 -17 -13 -18 0 -8 8 6 23 10 33 9 9 -2 15 1 11 6
-6 11 18 12 32 2 5 -5 1 0 -9 9 -17 16 -15 17 38 15 49 -2 54 -4 50 -22 -3
-11 -2 -14 1 -7 8 17 24 15 41 -5 13 -16 13 -16 4 4 -6 12 -16 23 -23 26 -7 3
13 4 45 3 54 -1 69 -7 48 -21 -5 -3 -12 -1 -16 4 -3 5 -14 9 -25 8 -10 -1 -17
-5 -14 -9 3 -4 12 -4 22 -1 15 6 16 5 2 -13 -13 -17 -13 -18 0 -8 8 6 23 10
33 9 9 -2 15 1 11 6 -6 11 18 12 32 2 5 -5 1 0 -9 9 -17 16 -15 17 38 15 49
-2 54 -4 50 -22 -3 -11 -2 -14 1 -8 8 18 24 16 41 -4 13 -16 13 -16 4 4 -6 12
-16 23 -23 26 -7 3 13 4 45 3 54 -1 69 -7 48 -21 -5 -3 -12 -1 -16 4 -3 5 -14
9 -25 8 -10 -1 -17 -5 -14 -9 3 -4 12 -4 22 -1 15 6 16 5 2 -13 -13 -17 -13
-18 0 -8 8 6 23 10 33 9 9 -2 15 1 11 6 -6 11 18 12 32 2 5 -5 1 0 -9 9 -17
16 -15 17 38 15 49 -2 54 -4 50 -22 -3 -11 -2 -14 1 -7 8 17 24 15 41 -5 13
-16 13 -16 4 4 -6 12 -16 23 -23 26 -7 3 13 4 45 3 54 -1 69 -7 48 -21 -5 -3
-12 -1 -16 4 -3 5 -14 9 -25 8 -10 -1 -17 -5 -14 -9 3 -4 12 -4 22 -1 15 6 16
5 2 -13 -13 -17 -13 -18 0 -8 8 6 23 10 33 9 9 -2 15 1 11 6 -6 11 18 12 32 2
5 -5 1 0 -9 9 -17 16 -15 17 38 15 49 -2 54 -4 50 -22 -3 -11 -2 -14 1 -7 7
15 34 16 34 0 0 -6 3 -8 7 -4 5 4 0 14 -11 21 -16 12 -11 14 38 12 53 -2 68
-9 47 -22 -5 -3 -12 -1 -16 4 -3 5 -14 9 -25 8 -10 -1 -17 -5 -14 -9 3 -4 12
-4 22 -1 15 6 16 5 2 -13 -13 -17 -13 -18 0 -8 8 6 23 10 33 9 9 -2 15 1 11 6
-6 11 18 12 32 2 5 -5 1 0 -9 9 -17 16 -15 17 38 15 49 -2 54 -4 50 -22 -3
-11 -2 -14 1 -8 8 18 24 16 41 -4 13 -16 13 -16 4 4 -6 12 -16 23 -23 26 -7 3
13 4 45 3 54 -1 69 -7 48 -21 -5 -3 -12 -1 -16 4 -3 5 -14 9 -25 8 -10 -1 -17
-5 -14 -9 3 -4 12 -4 22 -1 15 6 16 5 2 -13 -13 -17 -13 -18 0 -8 8 6 23 10
33 9 9 -2 15 1 11 6 -3 5 2 9 10 9 9 0 16 -4 16 -8 0 -4 11 -8 25 -8 14 0 25
4 25 9 0 5 -6 7 -13 4 -7 -3 -24 1 -37 8 -21 11 -15 13 53 11 72 -1 90 -7 68
-21 -5 -3 -12 -1 -16 4 -3 5 -14 9 -25 8 -10 -1 -17 -5 -14 -9 3 -4 12 -4 22
-1 15 6 16 5 2 -13 -13 -17 -13 -18 0 -8 8 6 23 10 33 9 9 -2 15 1 11 6 -6 11
18 12 32 2 5 -5 1 0 -9 9 -17 16 -15 17 38 15 49 -2 54 -4 50 -22 -3 -11 -2
-14 1 -7 8 17 24 15 41 -5 13 -16 13 -16 4 4 -6 12 -16 23 -23 26 -7 3 13 4
45 3 54 -1 69 -7 48 -21 -5 -3 -12 -1 -16 4 -3 5 -14 9 -25 8 -10 -1 -17 -5
-14 -9 3 -4 12 -4 22 -1 15 6 16 5 2 -13 -13 -17 -13 -18 0 -8 8 6 23 10 33 9
9 -2 15 1 11 6 -6 11 18 12 32 2 5 -5 1 0 -9 9 -17 16 -15 17 38 15 49 -2 54
-4 50 -22 -3 -11 -2 -14 1 -7 7 15 34 16 34 0 0 -6 3 -8 7 -4 5 4 0 14 -11 21
-16 12 -11 14 38 12 53 -2 68 -9 47 -22 -5 -3 -12 -1 -16 4 -3 5 -14 9 -25 8
-10 -1 -17 -5 -14 -9 3 -4 12 -4 22 -1 15 6 16 5 2 -13 -13 -17 -13 -18 0 -8
8 6 23 10 33 9 9 -2 15 1 11 6 -6 11 18 12 32 2 5 -5 1 0 -9 9 -17 16 -15 17
38 15 49 -2 54 -4 50 -22 -3 -11 -2 -14 1 -7 8 17 24 15 41 -5 13 -16 13 -16
4 4 -6 12 -16 23 -23 26 -7 3 13 4 45 3 54 -1 69 -7 48 -21 -5 -3 -12 -1 -16
4 -3 5 -14 9 -25 8 -10 -1 -17 -5 -14 -9 3 -4 12 -4 22 -1 15 6 16 5 2 -13
-13 -17 -13 -18 0 -8 8 6 23 10 33 9 9 -2 15 1 11 6 -6 11 18 12 32 2 5 -5 1
0 -9 9 -17 16 -15 17 38 15 49 -2 54 -4 50 -22 -3 -11 -2 -14 1 -8 8 18 24 16
41 -4 13 -16 13 -16 4 4 -6 12 -16 23 -23 26 -7 3 13 4 45 3 54 -1 69 -7 48
-21 -5 -3 -12 -1 -16 4 -3 5 -14 9 -25 8 -10 -1 -17 -5 -14 -9 3 -4 12 -4 22
-1 15 6 16 5 2 -13 -13 -17 -13 -18 0 -8 8 6 23 10 33 9 9 -2 15 1 11 6 -6 11
18 12 32 2 5 -5 1 0 -9 9 -17 16 -15 17 38 15 49 -2 54 -4 50 -22 -3 -11 -2
-14 1 -8 7 16 34 17 34 1 0 -6 3 -8 7 -4 5 4 0 14 -11 21 -16 12 -11 14 38 12
53 -2 68 -9 47 -22 -5 -3 -12 -1 -16 4 -3 5 -14 9 -25 8 -10 -1 -17 -5 -14 -9
3 -4 12 -4 22 -1 15 6 16 5 2 -13 -13 -17 -13 -18 0 -8 8 6 23 10 33 9 9 -2
15 1 11 6 -6 11 18 12 32 2 5 -5 1 0 -9 9 -17 16 -15 17 38 15 49 -2 54 -4 50
-22 -3 -11 -2 -14 1 -8 8 18 24 16 41 -4 13 -16 13 -16 4 4 -6 12 -16 23 -23
26 -7 3 13 4 45 3 54 -1 69 -7 48 -21 -5 -3 -12 -1 -16 4 -3 5 -14 9 -25 8
-10 -1 -17 -5 -14 -9 3 -4 12 -4 22 -1 15 6 16 5 2 -13 -13 -17 -13 -18 0 -8
8 6 23 10 33 9 9 -2 15 1 11 6 -6 11 18 12 32 2 5 -5 1 0 -9 9 -17 16 -15 17
38 15 49 -2 54 -4 50 -22 -3 -11 -2 -14 1 -7 8 17 24 15 41 -5 13 -16 13 -16
4 4 -6 12 -16 23 -23 26 -7 2 6 4 29 4 23 -1 45 2 49 6 4 3 7 564 7 1246 0
907 3 1239 11 1234 8 -5 8 -2 0 8 -16 20 -16 2561 0 2552 8 -5 7 -2 0 8 -16
20 -16 2561 0 2552 7 -5 7 -2 0 8 -9 10 -12 129 -12 414 0 220 -1 417 -1 438
l-1 37 -6000 0 -6000 0 -1 -62z"/>
<path d="M190 1814 c0 -1 8 -8 17 -15 14 -12 16 -12 8 0 -6 11 -4 13 9 8 9 -4
15 -3 11 2 -4 8 -45 12 -45 5z"/>
<path d="M430 1814 c0 -1 8 -8 17 -15 14 -12 16 -12 8 0 -6 11 -4 13 9 8 9 -4
15 -3 11 2 -4 8 -45 12 -45 5z"/>
<path d="M670 1814 c0 -1 8 -8 17 -15 14 -12 16 -12 8 0 -6 11 -4 13 9 8 9 -4
15 -3 11 2 -4 8 -45 12 -45 5z"/>
<path d="M910 1814 c0 -1 8 -8 17 -15 14 -12 16 -12 8 0 -6 11 -4 13 9 8 9 -4
15 -3 11 2 -4 8 -45 12 -45 5z"/>
<path d="M1150 1814 c0 -1 8 -8 17 -15 14 -12 16 -12 8 0 -6 11 -4 13 9 8 9
-4 15 -3 11 2 -4 8 -45 12 -45 5z"/>
<path d="M1390 1814 c0 -1 8 -8 17 -15 14 -12 16 -12 8 0 -6 11 -4 13 9 8 9
-4 15 -3 11 2 -4 8 -45 12 -45 5z"/>
<path d="M1630 1814 c0 -1 8 -8 17 -15 14 -12 16 -12 8 0 -6 11 -4 13 9 8 9
-4 15 -3 11 2 -4 8 -45 12 -45 5z"/>
<path d="M1870 1814 c0 -1 8 -8 17 -15 14 -12 16 -12 8 0 -6 11 -4 13 9 8 9
-4 15 -3 11 2 -4 8 -45 12 -45 5z"/>
<path d="M2110 1814 c0 -1 8 -8 17 -15 14 -12 16 -12 8 0 -6 11 -4 13 9 8 9
-4 15 -3 11 2 -4 8 -45 12 -45 5z"/>
<path d="M2350 1814 c0 -1 8 -8 17 -15 14 -12 16 -12 8 0 -6 11 -4 13 9 8 9
-4 15 -3 11 2 -4 8 -45 12 -45 5z"/>
<path d="M2590 1814 c0 -1 8 -8 17 -15 14 -12 16 -12 8 0 -6 11 -4 13 9 8 9
-4 15 -3 11 2 -4 8 -45 12 -45 5z"/>
<path d="M2830 1814 c0 -1 8 -8 17 -15 14 -12 16 -12 8 0 -6 11 -4 13 9 8 9
-4 15 -3 11 2 -4 8 -45 12 -45 5z"/>
<path d="M3070 1814 c0 -1 8 -8 17 -15 14 -12 16 -12 8 0 -6 11 -4 13 9 8 9
-4 15 -3 11 2 -4 8 -45 12 -45 5z"/>
<path d="M3310 1814 c0 -1 8 -8 17 -15 14 -12 16 -12 8 0 -6 11 -4 13 9 8 9
-4 15 -3 11 2 -4 8 -45 12 -45 5z"/>
<path d="M3550 1814 c0 -1 8 -8 17 -15 14 -12 16 -12 8 0 -6 11 -4 13 9 8 9
-4 15 -3 11 2 -4 8 -45 12 -45 5z"/>
<path d="M3790 1814 c0 -1 8 -8 17 -15 14 -12 16 -12 8 0 -6 11 -4 13 9 8 9
-4 15 -3 11 2 -4 8 -45 12 -45 5z"/>
<path d="M4270 1814 c0 -1 8 -8 17 -15 14 -12 16 -12 8 0 -6 11 -4 13 9 8 9
-4 15 -3 11 2 -4 8 -45 12 -45 5z"/>
<path d="M4510 1814 c0 -1 8 -8 17 -15 14 -12 16 -12 8 0 -6 11 -4 13 9 8 9
-4 15 -3 11 2 -4 8 -45 12 -45 5z"/>
<path d="M4750 1814 c0 -1 8 -8 17 -15 14 -12 16 -12 8 0 -6 11 -4 13 9 8 9
-4 15 -3 11 2 -4 8 -45 12 -45 5z"/>
<path d="M4990 1814 c0 -1 8 -8 17 -15 14 -12 16 -12 8 0 -6 11 -4 13 9 8 9
-4 15 -3 11 2 -4 8 -45 12 -45 5z"/>
<path d="M5230 1814 c0 -1 8 -8 17 -15 14 -12 16 -12 8 0 -6 11 -4 13 9 8 9
-4 15 -3 11 2 -4 8 -45 12 -45 5z"/>
<path d="M5470 1814 c0 -1 8 -8 17 -15 14 -12 16 -12 8 0 -6 11 -4 13 9 8 9
-4 15 -3 11 2 -4 8 -45 12 -45 5z"/>
<path d="M5710 1814 c0 -1 8 -8 17 -15 14 -12 16 -12 8 0 -6 11 -4 13 9 8 9
-4 15 -3 11 2 -4 8 -45 12 -45 5z"/>
<path d="M6190 1814 c0 -1 8 -8 17 -15 14 -12 16 -12 8 0 -6 11 -4 13 9 8 9
-4 15 -3 11 2 -4 8 -45 12 -45 5z"/>
<path d="M6430 1814 c0 -1 8 -8 17 -15 14 -12 16 -12 8 0 -6 11 -4 13 9 8 9
-4 15 -3 11 2 -4 8 -45 12 -45 5z"/>
<path d="M6670 1814 c0 -1 8 -8 17 -15 14 -12 16 -12 8 0 -6 11 -4 13 9 8 9
-4 15 -3 11 2 -4 8 -45 12 -45 5z"/>
<path d="M7150 1814 c0 -1 8 -8 17 -15 14 -12 16 -12 8 0 -6 11 -4 13 9 8 9
-4 15 -3 11 2 -4 8 -45 12 -45 5z"/>
<path d="M7390 1814 c0 -1 8 -8 17 -15 14 -12 16 -12 8 0 -6 11 -4 13 9 8 9
-4 15 -3 11 2 -4 8 -45 12 -45 5z"/>
<path d="M7630 1814 c0 -1 8 -8 17 -15 14 -12 16 -12 8 0 -6 11 -4 13 9 8 9
-4 15 -3 11 2 -4 8 -45 12 -45 5z"/>
<path d="M7870 1814 c0 -1 8 -8 17 -15 14 -12 16 -12 8 0 -6 11 -4 13 9 8 9
-4 15 -3 11 2 -4 8 -45 12 -45 5z"/>
<path d="M8110 1814 c0 -1 8 -8 17 -15 14 -12 16 -12 8 0 -6 11 -4 13 9 8 9
-4 15 -3 11 2 -4 8 -45 12 -45 5z"/>
<path d="M8350 1814 c0 -1 8 -8 17 -15 14 -12 16 -12 8 0 -6 11 -4 13 9 8 9
-4 15 -3 11 2 -4 8 -45 12 -45 5z"/>
<path d="M8590 1814 c0 -1 8 -8 17 -15 14 -12 16 -12 8 0 -6 11 -4 13 9 8 9
-4 15 -3 11 2 -4 8 -45 12 -45 5z"/>
<path d="M8830 1814 c0 -1 8 -8 17 -15 14 -12 16 -12 8 0 -6 11 -4 13 9 8 9
-4 15 -3 11 2 -4 8 -45 12 -45 5z"/>
<path d="M9070 1814 c0 -1 8 -8 17 -15 14 -12 16 -12 8 0 -6 11 -4 13 9 8 9
-4 15 -3 11 2 -4 8 -45 12 -45 5z"/>
<path d="M9310 1814 c0 -1 8 -8 17 -15 14 -12 16 -12 8 0 -6 11 -4 13 9 8 9
-4 15 -3 11 2 -4 8 -45 12 -45 5z"/>
<path d="M9550 1814 c0 -1 8 -8 17 -15 14 -12 16 -12 8 0 -6 11 -4 13 9 8 9
-4 15 -3 11 2 -4 8 -45 12 -45 5z"/>
<path d="M9790 1814 c0 -1 8 -8 17 -15 14 -12 16 -12 8 0 -6 11 -4 13 9 8 9
-4 15 -3 11 2 -4 8 -45 12 -45 5z"/>
<path d="M10030 1814 c0 -1 8 -8 17 -15 14 -12 16 -12 8 0 -6 11 -4 13 9 8 9
-4 15 -3 11 2 -4 8 -45 12 -45 5z"/>
<path d="M10430 1814 c0 -1 8 -8 17 -15 14 -12 16 -12 8 0 -6 11 -4 13 9 8 9
-4 15 -3 11 2 -4 8 -45 12 -45 5z"/>
<path d="M10670 1814 c0 -1 8 -8 17 -15 14 -12 16 -12 8 0 -6 11 -4 13 9 8 9
-4 15 -3 11 2 -4 8 -45 12 -45 5z"/>
<path d="M10910 1814 c0 -1 8 -8 17 -15 14 -12 16 -12 8 0 -6 11 -4 13 9 8 9
-4 15 -3 11 2 -4 8 -45 12 -45 5z"/>
<path d="M11150 1814 c0 -1 8 -8 17 -15 14 -12 16 -12 8 0 -6 11 -4 13 9 8 9
-4 15 -3 11 2 -4 8 -45 12 -45 5z"/>
<path d="M11390 1814 c0 -1 8 -8 17 -15 14 -12 16 -12 8 0 -6 11 -4 13 9 8 9
-4 15 -3 11 2 -4 8 -45 12 -45 5z"/>
<path d="M11630 1814 c0 -1 8 -8 17 -15 14 -12 16 -12 8 0 -6 11 -4 13 9 8 9
-4 15 -3 11 2 -4 8 -45 12 -45 5z"/>
<path d="M11870 1814 c0 -1 8 -8 17 -15 14 -12 16 -12 8 0 -6 11 -4 13 9 8 9
-4 15 -3 11 2 -4 8 -45 12 -45 5z"/>
<path d="M12013 1801 c0 -11 5 -18 9 -15 4 3 5 11 1 19 -7 21 -12 19 -10 -4z"/>
</g>
</svg>
