<svg width="1208" height="858" viewBox="0 0 1208 858" fill="none" xmlns="http://www.w3.org/2000/svg">
<g clip-path="url(#clip0_10_10)" filter="url(#filter0_d_10_10)">
<rect width="1200" height="850" transform="translate(4)" fill="white"/>
<!-- <rect x="4" width="500" height="850" fill="#002995"/> -->
<rect x="4" width="500" height="850" fill="#173963"/>
<rect x="704" width="500" height="850" fill="#e05a66"/>
<rect x="504" width="240" height="850" fill="white"/>
<rect x="1049" y="305" width="240" height="850" transform="rotate(90 1049 305)" fill="white"/>
<path d="M327.173 453V393.5H341.623V453H327.173ZM333.888 430.22V418.15H364.658V430.22H333.888ZM333.888 406.25V393.5H368.143V406.25H333.888ZM379.717 453V393.5H406.492C410.289 393.5 413.717 394.322 416.777 395.965C419.894 397.608 422.331 399.875 424.087 402.765C425.844 405.598 426.722 408.828 426.722 412.455C426.722 416.195 425.844 419.567 424.087 422.57C422.331 425.517 419.922 427.84 416.862 429.54C413.802 431.24 410.346 432.09 406.492 432.09H393.487V453H379.717ZM412.697 453L397.567 426.14L412.357 424.015L429.187 453H412.697ZM393.487 421.04H405.217C406.691 421.04 407.966 420.728 409.042 420.105C410.176 419.425 411.026 418.49 411.592 417.3C412.216 416.11 412.527 414.75 412.527 413.22C412.527 411.69 412.187 410.358 411.507 409.225C410.827 408.035 409.836 407.128 408.532 406.505C407.286 405.882 405.756 405.57 403.942 405.57H393.487V421.04ZM439.4 453V393.5H480.88V405.825H453.425V440.675H481.73V453H439.4ZM446.2 428.605V416.875H477.055V428.605H446.2ZM494.185 453V393.5H507.105L538.3 436L535.495 435.575C535.212 433.705 534.985 431.92 534.815 430.22C534.645 428.52 534.475 426.848 534.305 425.205C534.192 423.562 534.078 421.89 533.965 420.19C533.908 418.49 533.852 416.648 533.795 414.665C533.795 412.682 533.795 410.528 533.795 408.205V393.5H547.82V453H534.73L502.175 409.14L506.51 409.735C506.793 412.455 507.02 414.778 507.19 416.705C507.417 418.575 507.587 420.247 507.7 421.72C507.87 423.193 507.983 424.525 508.04 425.715C508.097 426.905 508.125 428.095 508.125 429.285C508.182 430.418 508.21 431.693 508.21 433.11V453H494.185ZM589.78 453.85C585.303 453.85 581.166 453.113 577.37 451.64C573.63 450.11 570.371 447.985 567.595 445.265C564.818 442.488 562.665 439.23 561.135 435.49C559.661 431.693 558.925 427.528 558.925 422.995C558.925 418.575 559.718 414.495 561.305 410.755C562.891 407.015 565.073 403.785 567.85 401.065C570.683 398.288 573.998 396.135 577.795 394.605C581.648 393.075 585.841 392.31 590.375 392.31C593.208 392.31 595.985 392.678 598.705 393.415C601.425 394.152 603.946 395.257 606.27 396.73C608.65 398.147 610.69 399.847 612.39 401.83L603.55 411.945C602.36 410.698 601.085 409.622 599.725 408.715C598.421 407.752 596.976 407.015 595.39 406.505C593.803 405.995 592.103 405.74 590.29 405.74C588.023 405.74 585.87 406.165 583.83 407.015C581.846 407.808 580.09 408.97 578.56 410.5C577.086 411.973 575.925 413.787 575.075 415.94C574.225 418.093 573.8 420.502 573.8 423.165C573.8 425.772 574.225 428.152 575.075 430.305C575.925 432.402 577.115 434.215 578.645 435.745C580.175 437.275 582.016 438.437 584.17 439.23C586.38 440.023 588.816 440.42 591.48 440.42C593.293 440.42 595.021 440.165 596.665 439.655C598.308 439.145 599.81 438.465 601.17 437.615C602.586 436.708 603.833 435.688 604.91 434.555L611.88 445.605C610.463 447.192 608.565 448.608 606.185 449.855C603.861 451.102 601.255 452.093 598.365 452.83C595.531 453.51 592.67 453.85 589.78 453.85ZM658.658 453V393.5H673.108V453H658.658ZM621.768 453V393.5H636.218V453H621.768ZM627.378 429.795L627.463 416.875H666.308V429.795H627.378ZM688.008 453V393.5H700.928L732.123 436L729.318 435.575C729.035 433.705 728.808 431.92 728.638 430.22C728.468 428.52 728.298 426.848 728.128 425.205C728.015 423.562 727.902 421.89 727.788 420.19C727.732 418.49 727.675 416.648 727.618 414.665C727.618 412.682 727.618 410.528 727.618 408.205V393.5H741.643V453H728.553L695.998 409.14L700.333 409.735C700.617 412.455 700.843 414.778 701.013 416.705C701.24 418.575 701.41 420.247 701.523 421.72C701.693 423.193 701.807 424.525 701.863 425.715C701.92 426.905 701.948 428.095 701.948 429.285C702.005 430.418 702.033 431.693 702.033 433.11V453H688.008ZM783.688 453.85C779.154 453.85 775.018 453.085 771.278 451.555C767.538 450.025 764.279 447.872 761.503 445.095C758.726 442.318 756.573 439.06 755.043 435.32C753.513 431.58 752.748 427.472 752.748 422.995C752.748 418.518 753.513 414.41 755.043 410.67C756.573 406.93 758.726 403.672 761.503 400.895C764.279 398.118 767.538 395.965 771.278 394.435C775.018 392.905 779.126 392.14 783.603 392.14C788.079 392.14 792.188 392.905 795.928 394.435C799.668 395.965 802.926 398.118 805.703 400.895C808.479 403.672 810.604 406.93 812.078 410.67C813.608 414.41 814.373 418.518 814.373 422.995C814.373 427.415 813.608 431.523 812.078 435.32C810.604 439.06 808.479 442.318 805.703 445.095C802.926 447.872 799.668 450.025 795.928 451.555C792.188 453.085 788.108 453.85 783.688 453.85ZM783.603 440.25C785.926 440.25 788.051 439.825 789.978 438.975C791.961 438.125 793.661 436.935 795.078 435.405C796.551 433.818 797.684 431.977 798.478 429.88C799.271 427.783 799.668 425.488 799.668 422.995C799.668 420.502 799.271 418.207 798.478 416.11C797.684 414.013 796.551 412.2 795.078 410.67C793.661 409.083 791.961 407.865 789.978 407.015C788.051 406.165 785.926 405.74 783.603 405.74C781.279 405.74 779.126 406.165 777.143 407.015C775.216 407.865 773.516 409.083 772.043 410.67C770.569 412.2 769.436 414.013 768.643 416.11C767.906 418.207 767.538 420.502 767.538 422.995C767.538 425.488 767.906 427.812 768.643 429.965C769.436 432.062 770.569 433.875 772.043 435.405C773.516 436.935 775.216 438.125 777.143 438.975C779.126 439.825 781.279 440.25 783.603 440.25ZM835.847 453L817.997 393.5H832.702L841.627 424.78C842.024 426.197 842.364 427.642 842.647 429.115C842.987 430.532 843.242 431.892 843.412 433.195C843.639 434.498 843.809 435.717 843.922 436.85C844.036 437.927 844.149 438.833 844.262 439.57H842.392C842.732 437.473 843.016 435.603 843.242 433.96C843.526 432.317 843.837 430.787 844.177 429.37C844.517 427.897 844.942 426.367 845.452 424.78L854.292 401.235H865.852L874.522 424.78C875.202 426.65 875.769 428.407 876.222 430.05C876.676 431.693 877.016 433.28 877.242 434.81C877.526 436.283 877.752 437.757 877.922 439.23L876.222 439.485C876.336 438.465 876.421 437.53 876.477 436.68C876.534 435.773 876.591 434.923 876.647 434.13C876.761 433.28 876.874 432.402 876.987 431.495C877.101 430.588 877.271 429.597 877.497 428.52C877.724 427.387 878.036 426.112 878.432 424.695L887.272 393.5H901.637L883.787 453H872.737L858.627 418.745L860.242 418.915L847.237 453H835.847ZM910.916 431.325C910.463 427.868 910.01 424.298 909.556 420.615C909.103 416.932 908.735 413.277 908.451 409.65C908.168 406.023 908.026 402.538 908.026 399.195V392.565H922.391V399.195C922.391 402.595 922.25 406.137 921.966 409.82C921.683 413.503 921.315 417.187 920.861 420.87C920.408 424.497 919.926 427.982 919.416 431.325H910.916ZM915.166 453.935C912.843 453.935 911.03 453.283 909.726 451.98C908.423 450.677 907.771 448.807 907.771 446.37C907.771 444.103 908.451 442.262 909.811 440.845C911.171 439.428 912.956 438.72 915.166 438.72C917.49 438.72 919.275 439.4 920.521 440.76C921.825 442.063 922.476 443.933 922.476 446.37C922.476 448.58 921.796 450.393 920.436 451.81C919.076 453.227 917.32 453.935 915.166 453.935Z" fill="black"/>
</g>
<defs>
<filter id="filter0_d_10_10" x="0" y="0" width="1208" height="858" filterUnits="userSpaceOnUse" color-interpolation-filters="sRGB">
<feFlood flood-opacity="0" result="BackgroundImageFix"/>
<feColorMatrix in="SourceAlpha" type="matrix" values="0 0 0 0 0 0 0 0 0 0 0 0 0 0 0 0 0 0 127 0" result="hardAlpha"/>
<feOffset dy="4"/>
<feGaussianBlur stdDeviation="2"/>
<feComposite in2="hardAlpha" operator="out"/>
<feColorMatrix type="matrix" values="0 0 0 0 0 0 0 0 0 0 0 0 0 0 0 0 0 0 0.25 0"/>
<feBlend mode="normal" in2="BackgroundImageFix" result="effect1_dropShadow_10_10"/>
<feBlend mode="normal" in="SourceGraphic" in2="effect1_dropShadow_10_10" result="shape"/>
</filter>
<clipPath id="clip0_10_10">
<rect width="1200" height="850" fill="white" transform="translate(4)"/>
</clipPath>
</defs>
</svg>
